# xmcd CD database file
#
# Track frame offsets:
#	150
#	22267
#	40190
#	59920
#	80200
#	85750
#	103940
#	114450
#	132782
#	150147
#	170185
#	192747
#
# Disc length: 2807 seconds
#
# Revision: 1
# Processed by: cddbd v1.5.2PL0 Copyright (c) Steve Scherf et al.
# Submitted via: CDex 1.70beta3
#
DISCID=ab0af50c
DTITLE=爆風スランプ - Jungle
DYEAR=1987
DGENRE=Funk
TTITLE0=THE TSURAI
TTITLE1=星空ダイアモンド
TTITLE2=終わる恋じゃねえだろ
TTITLE3=風の音
TTITLE4=雨だれ −Instrumental−
TTITLE5=夕焼け物語
TTITLE6=スーパーラップX
TTITLE7=映画通り
TTITLE8=恋はワンルーム
TTITLE9=More Than True
TTITLE10=愛がいそいでる
TTITLE11=東の島にブタがいた Vol.3
EXTD=YEAR: 1987
EXTT0=
EXTT1=
EXTT2=
EXTT3=
EXTT4=
EXTT5=
EXTT6=
EXTT7=
EXTT8=
EXTT9=
EXTT10=
EXTT11=
PLAYORDER=
